#!OML:ASF H:\Terrain\Patient Classification 1\Animal2\Wednesday\Animal2.ASF
:FULLY-SPECIFIED
:DEGREES
365
root 9.89634 17.6425 3.85424 2.67417 -4.29736 -4.70027
lowerback 3.26546 0.1117 6.08012
upperback -0.958291 0.46026 1.78341
thorax -2.79258 0.139572 -1.59294
lowerneck 1.57992 6.07209 16.578
upperneck 0.0550789 8.63582 -20.6419
head 1.43532 4.38353 -8.99794
rclavicle -3.50979e-015 -3.12092e-014
rhumerus -20.3091 8.29224 -87.6722
rradius 27.1895
rwrist 13.1404
rhand -16.712 19.049
rfingers 7.12502
rthumb 9.51325 -10.7162
lclavicle -3.50979e-015 -3.12092e-014
lhumerus -48.9225 2.2562 84.381
lradius 20.8634
lwrist 2.78516
lhand -20.1612 22.5776
lfingers 7.12502
lthumb 6.18422 52.4673
rfemur 3.55718 -6.63113 27.8914
rtibia 16.1134
rfoot -22.4287 9.03915
rtoes 12.156
lfemur -33.5958 4.24511 -16.8354
ltibia 29.7047
lfoot -10.3381 5.26074
ltoes -21.763
366
root 9.90628 17.6325 4.03022 2.7258 -4.53586 -4.59703
lowerback 3.05785 0.186616 5.97742
upperback -0.84633 0.531973 1.7272
thorax -2.55435 0.184646 -1.59635
lowerneck 1.47532 6.13896 16.4018
upperneck -0.0310497 8.69452 -20.4616
head 1.42337 4.40782 -8.89929
rclavicle -7.67806e-015 -2.04748e-014
rhumerus -20.0558 8.52112 -87.7177
rradius 27.7541
rwrist 12.5846
rhand -16.4322 19.4399
rfingers 7.12502
rthumb 9.78318 -10.3128
lclavicle -7.67806e-015 -2.04748e-014
lhumerus -48.9794 2.45457 84.2026
lradius 20.5649
lwrist 2.48794
lhand -20.0264 22.5546
lfingers 7.12502
lthumb 6.3143 52.4405
rfemur 4.81448 -6.76567 27.5763
rtibia 14.8245
rfoot -22.1615 9.00389
rtoes 7.03194
lfemur -33.5189 3.87586 -16.7294
ltibia 27.322
lfoot -10.4951 6.22952
ltoes -24.4992
367
root 9.91161 17.6212 4.19747 2.95177 -4.83539 -4.67518
lowerback 2.76483 0.343711 6.03754
upperback -0.805785 0.71671 1.66868
thorax -2.33272 0.281756 -1.69679
lowerneck 1.36362 6.09261 16.3901
upperneck -0.0876309 8.60476 -20.3598
head 1.40379 4.35798 -8.86465
rclavicle -2.62768e-015 6.36111e-015
rhumerus -19.781 9.06407 -87.889
rradius 28.1478
rwrist 11.677
rhand -16.5522 19.7738
rfingers 7.12502
rthumb 9.66746 -9.98431
lclavicle -2.62768e-015 6.36111e-015
lhumerus -49.0062 2.58919 83.9008
lradius 20.3834
lwrist 2.1682
lhand -19.684 22.7077
lfingers 7.12502
lthumb 6.64483 52.5835
rfemur 5.90103 -6.61444 27.5582
rtibia 13.4863
rfoot -21.9641 8.6004
rtoes 4.5471
lfemur -33.6501 3.49794 -16.3361
ltibia 25.089
lfoot -10.5629 6.96991
ltoes -26.5221
368
root 9.91589 17.6082 4.36353 3.19554 -5.16339 -4.8739
lowerback 2.615 0.499148 6.1816
upperback -0.877363 0.920199 1.66473
thorax -2.30552 0.380348 -1.78881
lowerneck 1.34436 6.01816 16.4375
upperneck -0.11572 8.49686 -20.3861
head 1.38194 4.30378 -8.88785
rclavicle -2.43014e-014 2.38542e-015
rhumerus -19.6881 9.84262 -88.1128
rradius 28.491
rwrist 10.7298
rhand -17.2376 19.8486
rfingers 7.12502
rthumb 9.00608 -9.93914
lclavicle -2.43014e-014 2.38542e-015
lhumerus -49.132 2.88189 83.4188
lradius 20.3599
lwrist 2.27703
lhand -19.0035 23.1345
lfingers 7.12502
lthumb 7.30181 52.9885
rfemur 7.0067 -6.29645 27.6968
rtibia 12.0934
rfoot -21.5926 8.43092
rtoes 4.19111
lfemur -33.8338 2.91641 -15.6379
ltibia 23.071
lfoot -10.7409 7.56964
ltoes -28.317
369
root 9.92339 17.5968 4.53684 3.32451 -5.35211 -5.03314
lowerback 2.60693 0.559071 6.28368
upperback -1.0041 1.00984 1.68624
thorax -2.42435 0.417928 -1.82792
lowerneck 1.42865 5.99314 16.5957
upperneck -0.0979255 8.48318 -20.5569
head 1.38541 4.30155 -8.97717
rclavicle -1.90523e-014 -2.54444e-014
rhumerus -19.8207 10.0382 -88.2398
rradius 28.8711
rwrist 10.4468
rhand -17.6884 20.0831
rfingers 7.12502
rthumb 8.57108 -9.7229
lclavicle -1.90523e-014 -2.54444e-014
lhumerus -49.3986 3.43542 82.7542
lradius 20.5968
lwrist 3.03223
lhand -17.7914 24.1821
lfingers 7.12502
lthumb 8.47164 53.9921
rfemur 8.35434 -6.04606 27.7602
rtibia 10.513
rfoot -20.9172 8.46785
rtoes 4.41097
lfemur -33.9736 1.67288 -14.7293
ltibia 21.4148
lfoot -11.2051 8.65691
ltoes -30.2738
370
root 9.93277 17.5879 4.71447 3.30493 -5.61209 -5.01365
lowerback 2.70919 0.612768 6.19262
upperback -1.10261 1.09145 1.68601
thorax -2.5791 0.453921 -1.7831
lowerneck 1.47095 6.01333 16.6701
upperneck 0.0727202 8.54301 -20.6462
head 1.44544 4.33133 -9.01689
rclavicle -3.72721e-016 9.54166e-015
rhumerus -20.0627 9.77409 -88.2571
rradius 29.3715
rwrist 10.5556
rhand -17.3726 20.4467
rfingers 7.12502
rthumb 8.87578 -9.34664
lclavicle -3.72721e-016 9.54166e-015
lhumerus -49.7175 3.95437 82.2065
lradius 20.7037
lwrist 3.48503
lhand -17.0937 24.6641
lfingers 7.12502
lthumb 9.14494 54.4458
rfemur 10.0497 -5.44839 27.6434
rtibia 8.52247
rfoot -19.993 8.17903
rtoes 3.68973
lfemur -34.0255 -0.327228 -13.6466
ltibia 20.1932
lfoot -11.7209 10.5608
ltoes -31.4423
371
root 9.94143 17.5785 4.89045 3.32348 -5.99181 -5.10084
lowerback 2.75256 0.724285 6.22127
upperback -1.10422 1.24498 1.70103
thorax -2.59335 0.52952 -1.79125
lowerneck 1.26741 6.06586 16.5847
upperneck 0.283182 8.61327 -20.6054
head 1.54748 4.35241 -8.97423
rclavicle -6.23687e-015 -2.04748e-014
rhumerus -20.075 10.0167 -88.3372
rradius 29.8886
rwrist 10.3152
rhand -17.2517 20.3286
rfingers 7.12502
rthumb 8.99247 -9.45975
lclavicle -6.23687e-015 -2.04748e-014
lhumerus -49.9256 4.06882 82.0659
lradius 20.6838
lwrist 3.40938
lhand -17.1896 24.5168
lfingers 7.12502
lthumb 9.05239 54.3026
rfemur 11.9855 -4.72298 27.6765
rtibia 6.10079
rfoot -19.2356 7.29454
rtoes 0.625775
lfemur -34.1563 -2.7856 -12.1511
ltibia 19.3068
lfoot -12.4232 12.8558
ltoes -30.6011
372
root 9.9506 17.5669 5.06281 3.5445 -6.35983 -5.54592
lowerback 2.6141 0.795101 6.64477
upperback -1.07686 1.34263 1.74746
thorax -2.47247 0.575338 -1.98067
lowerneck 0.943433 6.19005 16.6495
upperneck 0.464771 8.76418 -20.5645
head 1.68486 4.40803 -8.94834
rclavicle -1.55301e-015 -1.64991e-014
rhumerus -19.8467 10.534 -88.6176
rradius 30.2784
rwrist 10.0225
rhand -17.5144 19.9149
rfingers 7.12502
rthumb 8.739 -9.88418
lclavicle -1.55301e-015 -1.64991e-014
lhumerus -50.0108 4.09364 81.9408
lradius 20.5792
lwrist 3.16598
lhand -17.8075 24.1545
lfingers 7.12502
lthumb 8.45612 53.9652
rfemur 14.2669 -3.97962 28.1566
rtibia 2.73843
rfoot -18.0353 6.45364
rtoes -2.55081
lfemur -34.56 -2.40378 -11.4943
ltibia 18.6669
lfoot -13.5973 12.0265
ltoes -26.6293
373
root 9.95884 17.5516 5.23478 3.72856 -6.64794 -5.74684
lowerback 2.45909 0.816002 6.7924
upperback -1.05863 1.36049 1.7328
thorax -2.36146 0.585404 -2.07563
lowerneck 0.849343 6.30082 16.6482
upperneck 0.443191 8.8955 -20.4011
head 1.71202 4.46862 -8.88068
rclavicle -8.93289e-015 -1.19271e-015
rhumerus -19.7224 10.9477 -88.8919
rradius 30.6426
rwrist 9.65582
rhand -17.6132 19.653
rfingers 7.12502
rthumb 8.64359 -10.15
lclavicle -8.93289e-015 -1.19271e-015
lhumerus -50.0299 4.40612 81.5558
lradius 20.3708
lwrist 2.88556
lhand -18.2491 23.9367
lfingers 7.12502
lthumb 8.02992 53.7642
rfemur 16.1796 -3.32374 28.3639
rtibia 3.18055e-015
rfoot -16.6564 6.37044
rtoes -2.92269
lfemur -34.9682 -2.14034 -11.1637
ltibia 18.3456
lfoot -14.4894 11.8425
ltoes -23.9209
374
root 9.96589 17.5279 5.40704 3.70808 -6.85983 -5.68298
lowerback 2.47489 0.869348 6.65448
upperback -1.02619 1.42573 1.7004
thorax -2.33315 0.621321 -2.03497
lowerneck 0.977343 6.25924 16.404
upperneck 0.176526 8.81103 -20.1889
head 1.57613 4.43614 -8.77928
rclavicle -1.5586e-014 2.08724e-015
rhumerus -19.7763 11.2473 -88.9699
rradius 31.0117
rwrist 9.30368
rhand -17.7577 19.8407
rfingers 7.12502
rthumb 8.50418 -9.96804
lclavicle -1.5586e-014 2.08724e-015
lhumerus -50.0672 4.8245 81.1014
lradius 20.3057
lwrist 2.62582
lhand -18.0687 24.0727
lfingers 7.12502
lthumb 8.20406 53.8934
rfemur 16.7754 -2.76816 28.2175
rtibia 3.18055e-014
rfoot -16.3303 6.42706
rtoes -2.60488
lfemur -35.0635 -2.04213 -11.1816
ltibia 18.2274
lfoot -15.091 12.2683
ltoes -24.8625
375
root 9.97624 17.4995 5.58154 3.67197 -6.95477 -5.85576
lowerback 2.59614 0.90348 6.82432
upperback -1.02923 1.48816 1.71142
thorax -2.39603 0.647822 -2.123
lowerneck 0.968286 6.20803 16.2072
upperneck 0.110781 8.72505 -20.0843
head 1.52833 4.39327 -8.71568
rclavicle 1.8723e-014 5.86415e-015
rhumerus -19.9048 11.2249 -89.0349
rradius 31.3577
rwrist 9.35122
rhand -17.9944 20.2074
rfingers 7.12502
rthumb 8.27575 -9.61055
lclavicle 1.8723e-014 5.86415e-015
lhumerus -50.2834 4.72842 81.0763
lradius 20.288
lwrist 2.24276
lhand -18.3995 23.7722
lfingers 7.12502
lthumb 7.88472 53.6052
rfemur 17.4459 -2.32696 28.352
rtibia -2.22639e-014
rfoot -16.2717 5.9711
rtoes -6.03402
lfemur -34.9676 -2.05701 -10.9774
ltibia 18.1635
lfoot -15.2075 12.6185
ltoes -25.077
376
root 9.98989 17.4859 5.76738 3.65014 -7.03346 -5.75667
lowerback 2.57989 0.904249 6.7457
upperback -1.02157 1.48234 1.61109
thorax -2.37844 0.646146 -2.18218
lowerneck 0.824983 6.24852 16.3342
upperneck 0.168979 8.7736 -20.1835
head 1.58967 4.40943 -8.76209
rclavicle 8.99501e-015 1.55052e-014
rhumerus -20.0229 11.152 -89.2022
rradius 31.6029
rwrist 9.51246
rhand -18.1582 20.2287
rfingers 7.12502
rthumb 8.11765 -9.59533
lclavicle 8.99501e-015 1.55052e-014
lhumerus -50.4428 4.2813 81.3097
lradius 20.2128
lwrist 2.22053
lhand -19.1969 23.3125
lfingers 7.12502
lthumb 7.11504 53.1729
rfemur 18.1772 -1.90027 28.1764
rtibia 3.18055e-015
rfoot -16.3055 5.40802
rtoes -10.0628
lfemur -34.8154 -2.15327 -11.0972
ltibia 18.2915
lfoot -14.3734 13.1415
ltoes -25.3205
377
root 10.0041 17.475 5.96056 3.64745 -7.14515 -5.47404
lowerback 2.42716 0.920279 6.40715
upperback -1.0221 1.47715 1.52386
thorax -2.29835 0.650615 -2.08047
lowerneck 0.853087 6.28377 16.4537
upperneck 0.0615152 8.81659 -20.288
head 1.57383 4.43391 -8.81737
rclavicle -3.75206e-015 4.67144e-015
rhumerus -20.3229 11.3802 -89.2966
rradius 31.9898
rwrist 9.33435
rhand -17.9901 19.9177
rfingers 7.12502
rthumb 8.27993 -9.89999
lclavicle -3.75206e-015 4.67144e-015
lhumerus -50.4262 4.21065 81.3057
lradius 20.0513
lwrist 2.42278
lhand -19.6545 23.1209
lfingers 7.12502
lthumb 6.67331 52.9958
rfemur 18.8766 -1.42821 27.7492
rtibia -2.22639e-014
rfoot -16.0431 5.45299
rtoes -10.7212
lfemur -34.6278 -2.26108 -11.4501
ltibia 18.6465
lfoot -13.3392 13.5626
ltoes -25.4607
